<svg xmlns="http://www.w3.org/2000/svg" xmlns:xlink="http://www.w3.org/1999/xlink" width="437" zoomAndPan="magnify" viewBox="0 0 327.75 140.249994" height="187" preserveAspectRatio="xMidYMid meet" version="1.0"><metadata/><defs><g/><clipPath id="60161fc5bf"><path d="M 0.746094 20.597656 L 326.449219 20.597656 L 326.449219 118.730469 L 0.746094 118.730469 Z M 0.746094 20.597656 " clip-rule="nonzero"/></clipPath><clipPath id="ac1956de5e"><path d="M 0.746094 0.597656 L 326.449219 0.597656 L 326.449219 98.730469 L 0.746094 98.730469 Z M 0.746094 0.597656 " clip-rule="nonzero"/></clipPath><clipPath id="5874a9f2d4"><rect x="0" width="327" y="0" height="99"/></clipPath><clipPath id="e5d149e344"><rect x="0" width="170" y="0" height="53"/></clipPath></defs><g clip-path="url(#60161fc5bf)"><g transform="matrix(1, 0, 0, 1, 0.000000000000000111, 20)"><g clip-path="url(#5874a9f2d4)"><g clip-path="url(#ac1956de5e)"><path fill="#19110d" d="M 0.746094 0.597656 L 326.585938 0.597656 L 326.585938 98.730469 L 0.746094 98.730469 Z M 0.746094 0.597656 " fill-opacity="1" fill-rule="nonzero"/></g></g></g></g><g fill="#e84937" fill-opacity="1"><g transform="translate(230.017991, 91.013288)"><g><path d="M 2.179688 -18.863281 L 44.214844 -18.863281 C 41.433594 -16.738281 37.835938 -13.300781 35.382812 -9.921875 L 38.652344 -8.015625 C 42.304688 -12.8125 47.757812 -17.609375 52.609375 -20.71875 C 47.757812 -23.824219 42.304688 -28.621094 38.652344 -33.417969 L 35.382812 -31.511719 C 37.835938 -28.132812 41.433594 -24.695312 44.214844 -22.570312 L 2.179688 -22.570312 Z M 2.179688 -18.863281 "/></g></g></g><g transform="matrix(1, 0, 0, 1, 27, 42)"><g clip-path="url(#e5d149e344)"><g fill="#ffffff" fill-opacity="1"><g transform="translate(1.72361, 39.744145)"><g><path d="M 5.21875 0 L 1.125 0 L 12.953125 -32.203125 L 16.984375 -32.203125 L 28.8125 0 L 24.71875 0 L 21.484375 -9.125 L 8.453125 -9.125 Z M 9.6875 -12.578125 L 20.25 -12.578125 L 15.09375 -27.109375 L 14.84375 -27.109375 Z M 9.6875 -12.578125 "/></g></g></g><g fill="#ffffff" fill-opacity="1"><g transform="translate(29.877547, 39.744145)"><g><path d="M 29.8125 -22.140625 L 25.921875 -22.140625 C 25.597656 -23.628906 24.988281 -24.878906 24.09375 -25.890625 C 23.207031 -26.910156 22.132812 -27.679688 20.875 -28.203125 C 19.625 -28.734375 18.285156 -29 16.859375 -29 C 14.910156 -29 13.144531 -28.503906 11.5625 -27.515625 C 9.988281 -26.535156 8.738281 -25.082031 7.8125 -23.15625 C 6.882812 -21.238281 6.421875 -18.890625 6.421875 -16.109375 C 6.421875 -13.316406 6.882812 -10.960938 7.8125 -9.046875 C 8.738281 -7.128906 9.988281 -5.675781 11.5625 -4.6875 C 13.144531 -3.695312 14.910156 -3.203125 16.859375 -3.203125 C 18.285156 -3.203125 19.625 -3.460938 20.875 -3.984375 C 22.132812 -4.515625 23.207031 -5.285156 24.09375 -6.296875 C 24.988281 -7.316406 25.597656 -8.570312 25.921875 -10.0625 L 29.8125 -10.0625 C 29.414062 -7.863281 28.601562 -5.976562 27.375 -4.40625 C 26.144531 -2.84375 24.625 -1.644531 22.8125 -0.8125 C 21 0.0195312 19.015625 0.4375 16.859375 0.4375 C 14.109375 0.4375 11.664062 -0.226562 9.53125 -1.5625 C 7.394531 -2.90625 5.710938 -4.8125 4.484375 -7.28125 C 3.253906 -9.757812 2.640625 -12.703125 2.640625 -16.109375 C 2.640625 -19.503906 3.253906 -22.4375 4.484375 -24.90625 C 5.710938 -27.382812 7.394531 -29.289062 9.53125 -30.625 C 11.664062 -31.96875 14.109375 -32.640625 16.859375 -32.640625 C 19.015625 -32.640625 21 -32.222656 22.8125 -31.390625 C 24.625 -30.554688 26.144531 -29.351562 27.375 -27.78125 C 28.601562 -26.21875 29.414062 -24.335938 29.8125 -22.140625 Z M 29.8125 -22.140625 "/></g></g></g><g fill="#ffffff" fill-opacity="1"><g transform="translate(61.804402, 39.744145)"><g><path d="M 2.140625 -28.75 L 2.140625 -32.203125 L 26.296875 -32.203125 L 26.296875 -28.75 L 16.171875 -28.75 L 16.171875 0 L 12.265625 0 L 12.265625 -28.75 Z M 2.140625 -28.75 "/></g></g></g><g fill="#ffffff" fill-opacity="1"><g transform="translate(89.958708, 39.744145)"><g><path d="M 7.796875 -32.203125 L 7.796875 0 L 3.90625 0 L 3.90625 -32.203125 Z M 7.796875 -32.203125 "/></g></g></g><g fill="#ffffff" fill-opacity="1"><g transform="translate(101.387928, 39.744145)"><g><path d="M 31.078125 -16.109375 C 31.078125 -12.703125 30.460938 -9.757812 29.234375 -7.28125 C 28.003906 -4.8125 26.320312 -2.90625 24.1875 -1.5625 C 22.050781 -0.226562 19.609375 0.4375 16.859375 0.4375 C 14.109375 0.4375 11.664062 -0.226562 9.53125 -1.5625 C 7.394531 -2.90625 5.710938 -4.8125 4.484375 -7.28125 C 3.253906 -9.757812 2.640625 -12.703125 2.640625 -16.109375 C 2.640625 -19.503906 3.253906 -22.4375 4.484375 -24.90625 C 5.710938 -27.382812 7.394531 -29.289062 9.53125 -30.625 C 11.664062 -31.96875 14.109375 -32.640625 16.859375 -32.640625 C 19.609375 -32.640625 22.050781 -31.96875 24.1875 -30.625 C 26.320312 -29.289062 28.003906 -27.382812 29.234375 -24.90625 C 30.460938 -22.4375 31.078125 -19.503906 31.078125 -16.109375 Z M 27.296875 -16.109375 C 27.296875 -18.890625 26.832031 -21.238281 25.90625 -23.15625 C 24.976562 -25.082031 23.722656 -26.535156 22.140625 -27.515625 C 20.566406 -28.503906 18.804688 -29 16.859375 -29 C 14.910156 -29 13.144531 -28.503906 11.5625 -27.515625 C 9.988281 -26.535156 8.738281 -25.082031 7.8125 -23.15625 C 6.882812 -21.238281 6.421875 -18.890625 6.421875 -16.109375 C 6.421875 -13.316406 6.882812 -10.960938 7.8125 -9.046875 C 8.738281 -7.128906 9.988281 -5.675781 11.5625 -4.6875 C 13.144531 -3.695312 14.910156 -3.203125 16.859375 -3.203125 C 18.804688 -3.203125 20.566406 -3.695312 22.140625 -4.6875 C 23.722656 -5.675781 24.976562 -7.128906 25.90625 -9.046875 C 26.832031 -10.960938 27.296875 -13.316406 27.296875 -16.109375 Z M 27.296875 -16.109375 "/></g></g></g><g fill="#ffffff" fill-opacity="1"><g transform="translate(134.823813, 39.744145)"><g><path d="M 29.4375 -32.203125 L 29.4375 0 L 25.65625 0 L 8.109375 -25.28125 L 7.796875 -25.28125 L 7.796875 0 L 3.90625 0 L 3.90625 -32.203125 L 7.671875 -32.203125 L 25.28125 -6.859375 L 25.59375 -6.859375 L 25.59375 -32.203125 Z M 29.4375 -32.203125 "/></g></g></g></g></g></svg>