<?xml version="1.0"?>
<svg xmlns="http://www.w3.org/2000/svg" xmlns:xlink="http://www.w3.org/1999/xlink" width="211" zoomAndPan="magnify" viewBox="0 0 158.25 60" height="80" preserveAspectRatio="xMidYMid meet" version="1.0" data-visible-version="v0.8.0"><title>PreVision v0.8.0</title><metadata/><defs><filter x="0%" y="0%" width="100%" height="100%" id="da3b8fb262"><feColorMatrix values="0 0 0 0 1 0 0 0 0 1 0 0 0 0 1 0 0 0 1 0" color-interpolation-filters="sRGB"/></filter><g/><clipPath id="be1cfea425"><path d="M 0 0.140625 L 157.503906 0.140625 L 157.503906 59.859375 L 0 59.859375 Z M 0 0.140625 " clip-rule="nonzero"/></clipPath><clipPath id="f163ec2a2e"><path d="M 0 0.140625 L 157.503906 0.140625 L 157.503906 59.859375 L 0 59.859375 Z M 0 0.140625 " clip-rule="nonzero"/></clipPath><clipPath id="f1d60928e1"><path d="M 0 0.140625 L 157.503906 0.140625 L 157.503906 59.859375 L 0 59.859375 Z M 0 0.140625 " clip-rule="nonzero"/></clipPath><clipPath id="4cbb92951f"><path d="M 0 0.140625 L 157.503906 0.140625 L 157.503906 59.859375 L 0 59.859375 Z M 0 0.140625 " clip-rule="nonzero"/></clipPath><clipPath id="1f6bc30583"><rect x="0" width="158" y="0" height="60"/></clipPath><clipPath id="464109a1d1"><rect x="0" width="158" y="0" height="60"/></clipPath><mask id="f0e9da22fc"><g filter="url(#da3b8fb262)"><g transform="matrix(1, 0, 0, 1, 0, -0.000000000000006412)"><g clip-path="url(#464109a1d1)"><g clip-path="url(#4cbb92951f)"><g transform="matrix(1, 0, 0, 1, 0, -0.000000000000006412)"><g clip-path="url(#1f6bc30583)"><g fill="#000000" fill-opacity="1"><g transform="translate(34.049672, 40.466703)"><g><path d="M 16.84375 -17.578125 L 10.34375 0 L 7.59375 0 L 1.09375 -17.578125 L 4.03125 -17.578125 L 8.890625 -3.578125 L 9.0625 -3.578125 L 13.921875 -17.578125 Z M 16.84375 -17.578125 "/></g></g></g><g fill="#000000" fill-opacity="1"><g transform="translate(51.806129, 40.466703)"><g><path d="M 10.078125 0.328125 C 7.484375 0.328125 5.472656 -0.71875 4.046875 -2.8125 C 2.628906 -4.914062 1.921875 -7.882812 1.921875 -11.71875 C 1.921875 -15.519531 2.640625 -18.476562 4.078125 -20.59375 C 5.515625 -22.707031 7.515625 -23.765625 10.078125 -23.765625 C 12.640625 -23.765625 14.632812 -22.707031 16.0625 -20.59375 C 17.5 -18.476562 18.21875 -15.519531 18.21875 -11.71875 C 18.21875 -7.882812 17.503906 -4.914062 16.078125 -2.8125 C 14.660156 -0.71875 12.660156 0.328125 10.078125 0.328125 Z M 10.078125 -2.203125 C 11.785156 -2.203125 13.109375 -3.023438 14.046875 -4.671875 C 14.992188 -6.316406 15.46875 -8.664062 15.46875 -11.71875 C 15.46875 -14.757812 14.988281 -17.113281 14.03125 -18.78125 C 13.082031 -20.457031 11.765625 -21.296875 10.078125 -21.296875 C 8.378906 -21.296875 7.050781 -20.457031 6.09375 -18.78125 C 5.144531 -17.113281 4.671875 -14.757812 4.671875 -11.71875 C 4.671875 -8.664062 5.144531 -6.316406 6.09375 -4.671875 C 7.039062 -3.023438 8.367188 -2.203125 10.078125 -2.203125 Z M 10.078125 -2.203125 "/></g></g></g><g fill="#000000" fill-opacity="1"><g transform="translate(71.760525, 40.466703)"><g><path d="M 4.4375 0.1875 C 3.875 0.1875 3.390625 -0.015625 2.984375 -0.421875 C 2.578125 -0.828125 2.375 -1.3125 2.375 -1.875 C 2.375 -2.4375 2.578125 -2.921875 2.984375 -3.328125 C 3.390625 -3.734375 3.875 -3.9375 4.4375 -3.9375 C 5 -3.9375 5.484375 -3.734375 5.890625 -3.328125 C 6.296875 -2.921875 6.5 -2.4375 6.5 -1.875 C 6.5 -1.3125 6.296875 -0.828125 5.890625 -0.421875 C 5.484375 -0.015625 5 0.1875 4.4375 0.1875 Z M 4.4375 0.1875 "/></g></g></g><g fill="#000000" fill-opacity="1"><g transform="translate(80.450457, 40.466703)"><g><path fill-rule="evenodd" d="M 9.890625 0.328125 C 6.804688 0.328125 4.46875 -0.472656 2.882812 -2.078125 C 1.289062 -3.679688 0.992188 -5.789062 1.992188 -8.40625 C 2.609375 -10.023438 3.628906 -11.203125 5.054688 -11.9375 C 3.871094 -12.703125 3.132812 -13.671875 2.84375 -14.84375 C 2.320312 -16.929688 2.832031 -18.882812 4.382812 -20.703125 C 5.765625 -22.367188 7.601562 -23.203125 9.890625 -23.203125 C 12.1875 -23.203125 14.023438 -22.367188 15.398438 -20.703125 C 16.960938 -18.882812 17.476562 -16.929688 16.945312 -14.84375 C 16.65625 -13.671875 15.914062 -12.703125 14.726562 -11.9375 C 16.152344 -11.203125 17.175781 -10.023438 17.789062 -8.40625 C 18.789062 -5.789062 18.492188 -3.679688 16.90625 -2.078125 C 15.3125 -0.472656 12.976562 0.328125 9.890625 0.328125 Z M 9.890625 -2.203125 C 11.699219 -2.203125 13.070312 -2.675781 14.007812 -3.625 C 14.945312 -4.570312 15.101562 -5.8125 14.476562 -7.34375 C 13.898438 -8.75 12.367188 -9.453125 9.890625 -9.453125 C 7.421875 -9.453125 5.890625 -8.75 5.3125 -7.34375 C 4.6875 -5.8125 4.84375 -4.570312 5.78125 -3.625 C 6.71875 -2.675781 8.085938 -2.203125 9.890625 -2.203125 Z M 9.890625 -11.875 C 11.523438 -11.875 12.710938 -12.3125 13.453125 -13.1875 C 14.195312 -14.0625 14.335938 -15.167969 13.867188 -16.5 C 13.414062 -17.789062 12.089844 -18.4375 9.890625 -18.4375 C 7.699219 -18.4375 6.375 -17.789062 5.914062 -16.5 C 5.453125 -15.167969 5.59375 -14.0625 6.335938 -13.1875 C 7.078125 -12.3125 8.261719 -11.875 9.890625 -11.875 Z M 9.890625 -11.875 "/></g></g></g><g fill="#000000" fill-opacity="1"><g transform="translate(94.635135, 40.466703)"><g><path d="M 4.4375 0.1875 C 3.875 0.1875 3.390625 -0.015625 2.984375 -0.421875 C 2.578125 -0.828125 2.375 -1.3125 2.375 -1.875 C 2.375 -2.4375 2.578125 -2.921875 2.984375 -3.328125 C 3.390625 -3.734375 3.875 -3.9375 4.4375 -3.9375 C 5 -3.9375 5.484375 -3.734375 5.890625 -3.328125 C 6.296875 -2.921875 6.5 -2.4375 6.5 -1.875 C 6.5 -1.3125 6.296875 -0.828125 5.890625 -0.421875 C 5.484375 -0.015625 5 0.1875 4.4375 0.1875 Z M 4.4375 0.1875 "/></g></g></g><g fill="#000000" fill-opacity="1"><g transform="translate(103.325067, 40.466703)"><g><path d="M 10.078125 0.328125 C 7.484375 0.328125 5.472656 -0.71875 4.046875 -2.8125 C 2.628906 -4.914062 1.921875 -7.882812 1.921875 -11.71875 C 1.921875 -15.519531 2.640625 -18.476562 4.078125 -20.59375 C 5.515625 -22.707031 7.515625 -23.765625 10.078125 -23.765625 C 12.640625 -23.765625 14.632812 -22.707031 16.0625 -20.59375 C 17.5 -18.476562 18.21875 -15.519531 18.21875 -11.71875 C 18.21875 -7.882812 17.503906 -4.914062 16.078125 -2.8125 C 14.660156 -0.71875 12.660156 0.328125 10.078125 0.328125 Z M 10.078125 -2.203125 C 11.785156 -2.203125 13.109375 -3.023438 14.046875 -4.671875 C 14.992188 -6.316406 15.46875 -8.664062 15.46875 -11.71875 C 15.46875 -14.757812 14.988281 -17.113281 14.03125 -18.78125 C 13.082031 -20.457031 11.765625 -21.296875 10.078125 -21.296875 C 8.378906 -21.296875 7.050781 -20.457031 6.09375 -18.78125 C 5.144531 -17.113281 4.671875 -14.757812 4.671875 -11.71875 C 4.671875 -8.664062 5.144531 -6.316406 6.09375 -4.671875 C 7.039062 -3.023438 8.367188 -2.203125 10.078125 -2.203125 Z M 10.078125 -2.203125 "/></g></g></g></g></g></g></g></g></g></mask><clipPath id="5d78c4d6a6"><path d="M 0 0.140625 L 157.503906 0.140625 L 157.503906 59.859375 L 0 59.859375 Z M 0 0.140625 " clip-rule="nonzero"/></clipPath><linearGradient x1="-4.67679" gradientTransform="matrix(2.686969, 0, 0, 2.685932, 12.566389, 8.233242)" y1="7.5" x2="53.940756" gradientUnits="userSpaceOnUse" y2="7.5" id="6b113038f5"><stop stop-opacity="1" stop-color="rgb(65.098572%, 65.098572%, 65.098572%)" offset="0"/><stop stop-opacity="1" stop-color="rgb(65.098572%, 65.098572%, 65.098572%)" offset="0.125"/><stop stop-opacity="1" stop-color="rgb(65.098572%, 65.098572%, 65.098572%)" offset="0.1875"/><stop stop-opacity="1" stop-color="rgb(65.098572%, 65.098572%, 65.098572%)" offset="0.21875"/><stop stop-opacity="1" stop-color="rgb(65.153503%, 65.153503%, 65.153503%)" offset="0.226562"/><stop stop-opacity="1" stop-color="rgb(65.45105%, 65.45105%, 65.45105%)" offset="0.230469"/><stop stop-opacity="1" stop-color="rgb(65.693665%, 65.693665%, 65.693665%)" offset="0.234375"/><stop stop-opacity="1" stop-color="rgb(65.934753%, 65.934753%, 65.934753%)" offset="0.238281"/><stop stop-opacity="1" stop-color="rgb(66.177368%, 66.177368%, 66.177368%)" offset="0.242188"/><stop stop-opacity="1" stop-color="rgb(66.419983%, 66.419983%, 66.419983%)" offset="0.246094"/><stop stop-opacity="1" stop-color="rgb(66.662598%, 66.662598%, 66.662598%)" offset="0.25"/><stop stop-opacity="1" stop-color="rgb(66.905212%, 66.905212%, 66.905212%)" offset="0.253906"/><stop stop-opacity="1" stop-color="rgb(67.147827%, 67.147827%, 67.147827%)" offset="0.257812"/><stop stop-opacity="1" stop-color="rgb(67.388916%, 67.388916%, 67.388916%)" offset="0.261719"/><stop stop-opacity="1" stop-color="rgb(67.631531%, 67.631531%, 67.631531%)" offset="0.265625"/><stop stop-opacity="1" stop-color="rgb(67.874146%, 67.874146%, 67.874146%)" offset="0.269531"/><stop stop-opacity="1" stop-color="rgb(68.11676%, 68.11676%, 68.11676%)" offset="0.273438"/><stop stop-opacity="1" stop-color="rgb(68.357849%, 68.357849%, 68.357849%)" offset="0.277344"/><stop stop-opacity="1" stop-color="rgb(68.600464%, 68.600464%, 68.600464%)" offset="0.28125"/><stop stop-opacity="1" stop-color="rgb(68.843079%, 68.843079%, 68.843079%)" offset="0.285156"/><stop stop-opacity="1" stop-color="rgb(69.085693%, 69.085693%, 69.085693%)" offset="0.289062"/><stop stop-opacity="1" stop-color="rgb(69.326782%, 69.326782%, 69.326782%)" offset="0.292969"/><stop stop-opacity="1" stop-color="rgb(69.569397%, 69.569397%, 69.569397%)" offset="0.296875"/><stop stop-opacity="1" stop-color="rgb(69.812012%, 69.812012%, 69.812012%)" offset="0.300781"/><stop stop-opacity="1" stop-color="rgb(70.054626%, 70.054626%, 70.054626%)" offset="0.304688"/><stop stop-opacity="1" stop-color="rgb(70.295715%, 70.295715%, 70.295715%)" offset="0.308594"/><stop stop-opacity="1" stop-color="rgb(70.53833%, 70.53833%, 70.53833%)" offset="0.3125"/><stop stop-opacity="1" stop-color="rgb(70.780945%, 70.780945%, 70.780945%)" offset="0.316406"/><stop stop-opacity="1" stop-color="rgb(71.02356%, 71.02356%, 71.02356%)" offset="0.320312"/><stop stop-opacity="1" stop-color="rgb(71.266174%, 71.266174%, 71.266174%)" offset="0.324219"/><stop stop-opacity="1" stop-color="rgb(71.508789%, 71.508789%, 71.508789%)" offset="0.328125"/><stop stop-opacity="1" stop-color="rgb(71.749878%, 71.749878%, 71.749878%)" offset="0.332031"/><stop stop-opacity="1" stop-color="rgb(71.992493%, 71.992493%, 71.992493%)" offset="0.335938"/><stop stop-opacity="1" stop-color="rgb(72.235107%, 72.235107%, 72.235107%)" offset="0.339844"/><stop stop-opacity="1" stop-color="rgb(72.477722%, 72.477722%, 72.477722%)" offset="0.34375"/><stop stop-opacity="1" stop-color="rgb(72.718811%, 72.718811%, 72.718811%)" offset="0.347656"/><stop stop-opacity="1" stop-color="rgb(72.961426%, 72.961426%, 72.961426%)" offset="0.351563"/><stop stop-opacity="1" stop-color="rgb(73.204041%, 73.204041%, 73.204041%)" offset="0.355469"/><stop stop-opacity="1" stop-color="rgb(73.446655%, 73.446655%, 73.446655%)" offset="0.359375"/><stop stop-opacity="1" stop-color="rgb(73.687744%, 73.687744%, 73.687744%)" offset="0.363281"/><stop stop-opacity="1" stop-color="rgb(73.930359%, 73.930359%, 73.930359%)" offset="0.367188"/><stop stop-opacity="1" stop-color="rgb(74.172974%, 74.172974%, 74.172974%)" offset="0.371094"/><stop stop-opacity="1" stop-color="rgb(74.415588%, 74.415588%, 74.415588%)" offset="0.375"/><stop stop-opacity="1" stop-color="rgb(74.656677%, 74.656677%, 74.656677%)" offset="0.378906"/><stop stop-opacity="1" stop-color="rgb(74.899292%, 74.899292%, 74.899292%)" offset="0.382813"/><stop stop-opacity="1" stop-color="rgb(75.141907%, 75.141907%, 75.141907%)" offset="0.386719"/><stop stop-opacity="1" stop-color="rgb(75.384521%, 75.384521%, 75.384521%)" offset="0.390625"/><stop stop-opacity="1" stop-color="rgb(75.627136%, 75.627136%, 75.627136%)" offset="0.394531"/><stop stop-opacity="1" stop-color="rgb(75.869751%, 75.869751%, 75.869751%)" offset="0.398438"/><stop stop-opacity="1" stop-color="rgb(76.11084%, 76.11084%, 76.11084%)" offset="0.402344"/><stop stop-opacity="1" stop-color="rgb(76.353455%, 76.353455%, 76.353455%)" offset="0.40625"/><stop stop-opacity="1" stop-color="rgb(76.596069%, 76.596069%, 76.596069%)" offset="0.410156"/><stop stop-opacity="1" stop-color="rgb(76.838684%, 76.838684%, 76.838684%)" offset="0.414062"/><stop stop-opacity="1" stop-color="rgb(77.079773%, 77.079773%, 77.079773%)" offset="0.417969"/><stop stop-opacity="1" stop-color="rgb(77.322388%, 77.322388%, 77.322388%)" offset="0.421875"/><stop stop-opacity="1" stop-color="rgb(77.565002%, 77.565002%, 77.565002%)" offset="0.425781"/><stop stop-opacity="1" stop-color="rgb(77.807617%, 77.807617%, 77.807617%)" offset="0.429688"/><stop stop-opacity="1" stop-color="rgb(78.048706%, 78.048706%, 78.048706%)" offset="0.433594"/><stop stop-opacity="1" stop-color="rgb(78.291321%, 78.291321%, 78.291321%)" offset="0.4375"/><stop stop-opacity="1" stop-color="rgb(78.533936%, 78.533936%, 78.533936%)" offset="0.441406"/><stop stop-opacity="1" stop-color="rgb(78.77655%, 78.77655%, 78.77655%)" offset="0.445313"/><stop stop-opacity="1" stop-color="rgb(79.017639%, 79.017639%, 79.017639%)" offset="0.449219"/><stop stop-opacity="1" stop-color="rgb(79.260254%, 79.260254%, 79.260254%)" offset="0.453125"/><stop stop-opacity="1" stop-color="rgb(79.502869%, 79.502869%, 79.502869%)" offset="0.457031"/><stop stop-opacity="1" stop-color="rgb(79.745483%, 79.745483%, 79.745483%)" offset="0.460938"/><stop stop-opacity="1" stop-color="rgb(79.988098%, 79.988098%, 79.988098%)" offset="0.464844"/><stop stop-opacity="1" stop-color="rgb(80.230713%, 80.230713%, 80.230713%)" offset="0.46875"/><stop stop-opacity="1" stop-color="rgb(80.471802%, 80.471802%, 80.471802%)" offset="0.472656"/><stop stop-opacity="1" stop-color="rgb(80.714417%, 80.714417%, 80.714417%)" offset="0.476563"/><stop stop-opacity="1" stop-color="rgb(80.957031%, 80.957031%, 80.957031%)" offset="0.480469"/><stop stop-opacity="1" stop-color="rgb(81.199646%, 81.199646%, 81.199646%)" offset="0.484375"/><stop stop-opacity="1" stop-color="rgb(81.440735%, 81.440735%, 81.440735%)" offset="0.488281"/><stop stop-opacity="1" stop-color="rgb(81.68335%, 81.68335%, 81.68335%)" offset="0.492188"/><stop stop-opacity="1" stop-color="rgb(81.925964%, 81.925964%, 81.925964%)" offset="0.496094"/><stop stop-opacity="1" stop-color="rgb(82.168579%, 82.168579%, 82.168579%)" offset="0.5"/><stop stop-opacity="1" stop-color="rgb(82.409668%, 82.409668%, 82.409668%)" offset="0.503906"/><stop stop-opacity="1" stop-color="rgb(82.652283%, 82.652283%, 82.652283%)" offset="0.507812"/><stop stop-opacity="1" stop-color="rgb(82.894897%, 82.894897%, 82.894897%)" offset="0.511719"/><stop stop-opacity="1" stop-color="rgb(83.137512%, 83.137512%, 83.137512%)" offset="0.515625"/><stop stop-opacity="1" stop-color="rgb(83.378601%, 83.378601%, 83.378601%)" offset="0.519531"/><stop stop-opacity="1" stop-color="rgb(83.621216%, 83.621216%, 83.621216%)" offset="0.523438"/><stop stop-opacity="1" stop-color="rgb(83.863831%, 83.863831%, 83.863831%)" offset="0.527344"/><stop stop-opacity="1" stop-color="rgb(84.106445%, 84.106445%, 84.106445%)" offset="0.53125"/><stop stop-opacity="1" stop-color="rgb(84.34906%, 84.34906%, 84.34906%)" offset="0.535156"/><stop stop-opacity="1" stop-color="rgb(84.591675%, 84.591675%, 84.591675%)" offset="0.539062"/><stop stop-opacity="1" stop-color="rgb(84.832764%, 84.832764%, 84.832764%)" offset="0.542969"/><stop stop-opacity="1" stop-color="rgb(85.075378%, 85.075378%, 85.075378%)" offset="0.546875"/><stop stop-opacity="1" stop-color="rgb(85.317993%, 85.317993%, 85.317993%)" offset="0.550781"/><stop stop-opacity="1" stop-color="rgb(85.560608%, 85.560608%, 85.560608%)" offset="0.554688"/><stop stop-opacity="1" stop-color="rgb(85.801697%, 85.801697%, 85.801697%)" offset="0.558594"/><stop stop-opacity="1" stop-color="rgb(86.044312%, 86.044312%, 86.044312%)" offset="0.5625"/><stop stop-opacity="1" stop-color="rgb(86.286926%, 86.286926%, 86.286926%)" offset="0.566406"/><stop stop-opacity="1" stop-color="rgb(86.529541%, 86.529541%, 86.529541%)" offset="0.570313"/><stop stop-opacity="1" stop-color="rgb(86.77063%, 86.77063%, 86.77063%)" offset="0.574219"/><stop stop-opacity="1" stop-color="rgb(87.013245%, 87.013245%, 87.013245%)" offset="0.578125"/><stop stop-opacity="1" stop-color="rgb(87.255859%, 87.255859%, 87.255859%)" offset="0.582031"/><stop stop-opacity="1" stop-color="rgb(87.498474%, 87.498474%, 87.498474%)" offset="0.585938"/><stop stop-opacity="1" stop-color="rgb(87.739563%, 87.739563%, 87.739563%)" offset="0.589844"/><stop stop-opacity="1" stop-color="rgb(87.982178%, 87.982178%, 87.982178%)" offset="0.59375"/><stop stop-opacity="1" stop-color="rgb(88.224792%, 88.224792%, 88.224792%)" offset="0.597656"/><stop stop-opacity="1" stop-color="rgb(88.467407%, 88.467407%, 88.467407%)" offset="0.601563"/><stop stop-opacity="1" stop-color="rgb(88.710022%, 88.710022%, 88.710022%)" offset="0.605469"/><stop stop-opacity="1" stop-color="rgb(88.952637%, 88.952637%, 88.952637%)" offset="0.609375"/><stop stop-opacity="1" stop-color="rgb(89.193726%, 89.193726%, 89.193726%)" offset="0.613281"/><stop stop-opacity="1" stop-color="rgb(89.43634%, 89.43634%, 89.43634%)" offset="0.617188"/><stop stop-opacity="1" stop-color="rgb(89.678955%, 89.678955%, 89.678955%)" offset="0.621094"/><stop stop-opacity="1" stop-color="rgb(89.92157%, 89.92157%, 89.92157%)" offset="0.625"/><stop stop-opacity="1" stop-color="rgb(90.162659%, 90.162659%, 90.162659%)" offset="0.628906"/><stop stop-opacity="1" stop-color="rgb(90.405273%, 90.405273%, 90.405273%)" offset="0.632812"/><stop stop-opacity="1" stop-color="rgb(90.647888%, 90.647888%, 90.647888%)" offset="0.636719"/><stop stop-opacity="1" stop-color="rgb(90.890503%, 90.890503%, 90.890503%)" offset="0.640625"/><stop stop-opacity="1" stop-color="rgb(91.131592%, 91.131592%, 91.131592%)" offset="0.644531"/><stop stop-opacity="1" stop-color="rgb(91.374207%, 91.374207%, 91.374207%)" offset="0.648437"/><stop stop-opacity="1" stop-color="rgb(91.616821%, 91.616821%, 91.616821%)" offset="0.652344"/><stop stop-opacity="1" stop-color="rgb(91.859436%, 91.859436%, 91.859436%)" offset="0.65625"/><stop stop-opacity="1" stop-color="rgb(92.100525%, 92.100525%, 92.100525%)" offset="0.660156"/><stop stop-opacity="1" stop-color="rgb(92.34314%, 92.34314%, 92.34314%)" offset="0.664062"/><stop stop-opacity="1" stop-color="rgb(92.585754%, 92.585754%, 92.585754%)" offset="0.667969"/><stop stop-opacity="1" stop-color="rgb(92.828369%, 92.828369%, 92.828369%)" offset="0.671875"/><stop stop-opacity="1" stop-color="rgb(93.070984%, 93.070984%, 93.070984%)" offset="0.675781"/><stop stop-opacity="1" stop-color="rgb(93.313599%, 93.313599%, 93.313599%)" offset="0.679688"/><stop stop-opacity="1" stop-color="rgb(93.554688%, 93.554688%, 93.554688%)" offset="0.683594"/><stop stop-opacity="1" stop-color="rgb(93.797302%, 93.797302%, 93.797302%)" offset="0.6875"/><stop stop-opacity="1" stop-color="rgb(94.039917%, 94.039917%, 94.039917%)" offset="0.691406"/><stop stop-opacity="1" stop-color="rgb(94.282532%, 94.282532%, 94.282532%)" offset="0.695312"/><stop stop-opacity="1" stop-color="rgb(94.523621%, 94.523621%, 94.523621%)" offset="0.699219"/><stop stop-opacity="1" stop-color="rgb(94.766235%, 94.766235%, 94.766235%)" offset="0.703125"/><stop stop-opacity="1" stop-color="rgb(95.00885%, 95.00885%, 95.00885%)" offset="0.707031"/><stop stop-opacity="1" stop-color="rgb(95.251465%, 95.251465%, 95.251465%)" offset="0.710938"/><stop stop-opacity="1" stop-color="rgb(95.492554%, 95.492554%, 95.492554%)" offset="0.714844"/><stop stop-opacity="1" stop-color="rgb(95.735168%, 95.735168%, 95.735168%)" offset="0.71875"/><stop stop-opacity="1" stop-color="rgb(95.977783%, 95.977783%, 95.977783%)" offset="0.722656"/><stop stop-opacity="1" stop-color="rgb(96.220398%, 96.220398%, 96.220398%)" offset="0.726562"/><stop stop-opacity="1" stop-color="rgb(96.461487%, 96.461487%, 96.461487%)" offset="0.730469"/><stop stop-opacity="1" stop-color="rgb(96.704102%, 96.704102%, 96.704102%)" offset="0.734375"/><stop stop-opacity="1" stop-color="rgb(96.946716%, 96.946716%, 96.946716%)" offset="0.738281"/><stop stop-opacity="1" stop-color="rgb(97.189331%, 97.189331%, 97.189331%)" offset="0.742188"/><stop stop-opacity="1" stop-color="rgb(97.431946%, 97.431946%, 97.431946%)" offset="0.746094"/><stop stop-opacity="1" stop-color="rgb(97.674561%, 97.674561%, 97.674561%)" offset="0.75"/><stop stop-opacity="1" stop-color="rgb(97.915649%, 97.915649%, 97.915649%)" offset="0.753906"/><stop stop-opacity="1" stop-color="rgb(98.158264%, 98.158264%, 98.158264%)" offset="0.757813"/><stop stop-opacity="1" stop-color="rgb(98.400879%, 98.400879%, 98.400879%)" offset="0.761719"/><stop stop-opacity="1" stop-color="rgb(98.643494%, 98.643494%, 98.643494%)" offset="0.765625"/><stop stop-opacity="1" stop-color="rgb(98.884583%, 98.884583%, 98.884583%)" offset="0.769531"/><stop stop-opacity="1" stop-color="rgb(99.127197%, 99.127197%, 99.127197%)" offset="0.773438"/><stop stop-opacity="1" stop-color="rgb(99.369812%, 99.369812%, 99.369812%)" offset="0.777344"/><stop stop-opacity="1" stop-color="rgb(99.612427%, 99.612427%, 99.612427%)" offset="0.78125"/><stop stop-opacity="1" stop-color="rgb(99.806213%, 99.806213%, 99.806213%)" offset="0.8125"/><stop stop-opacity="1" stop-color="rgb(100%, 100%, 100%)" offset="0.875"/><stop stop-opacity="1" stop-color="rgb(100%, 100%, 100%)" offset="1"/></linearGradient><clipPath id="825cfe00cb"><rect x="0" width="158" y="0" height="60"/></clipPath><clipPath id="cf290fa559"><rect x="0" width="158" y="0" height="60"/></clipPath><clipPath id="de9812f5bf"><rect x="0" width="158" y="0" height="60"/></clipPath></defs><g clip-path="url(#be1cfea425)"><g transform="matrix(1, 0, 0, 1, 0, -0.000000000000006412)"><g clip-path="url(#de9812f5bf)"><g clip-path="url(#f163ec2a2e)"><g transform="matrix(1, 0, 0, 1, 0, -0.000000000000006412)"><g clip-path="url(#cf290fa559)"><g clip-path="url(#f1d60928e1)"><g mask="url(#f0e9da22fc)"><g transform="matrix(1, 0, 0, 1, 0, -0.000000000000006412)"><g clip-path="url(#825cfe00cb)"><g clip-path="url(#5d78c4d6a6)"><path fill="url(#6b113038f5)" d="M 0 0.140625 L 0 59.859375 L 157.503906 59.859375 L 157.503906 0.140625 Z M 0 0.140625 " fill-rule="nonzero"/></g></g></g></g></g></g></g></g></g></g></g></svg>
